<?xml version="1.0" encoding="UTF-8" standalone="no"?>
<!-- Created with Inkscape (http://www.inkscape.org/) -->

<svg
   xmlns:dc="http://purl.org/dc/elements/1.1/"
   xmlns:cc="http://creativecommons.org/ns#"
   xmlns:rdf="http://www.w3.org/1999/02/22-rdf-syntax-ns#"
   xmlns:svg="http://www.w3.org/2000/svg"
   xmlns="http://www.w3.org/2000/svg"
   xmlns:sodipodi="http://sodipodi.sourceforge.net/DTD/sodipodi-0.dtd"
   xmlns:inkscape="http://www.inkscape.org/namespaces/inkscape"
   width="147.2063mm"
   height="108.7226mm"
   viewBox="0 0 147.2063 108.7226"
   version="1.1"
   id="svg8"
   inkscape:version="0.92.5 (2060ec1f9f, 2020-04-08)"
   sodipodi:docname="drawing.svg">
  <defs
     id="defs2" />
  <sodipodi:namedview
     id="base"
     pagecolor="#ffffff"
     bordercolor="#666666"
     borderopacity="1.0"
     inkscape:pageopacity="0.0"
     inkscape:pageshadow="2"
     inkscape:zoom="0.98994949"
     inkscape:cx="77.970599"
     inkscape:cy="150.97246"
     inkscape:document-units="mm"
     inkscape:current-layer="layer1"
     showgrid="false"
     showguides="true"
     inkscape:guide-bbox="true"
     inkscape:window-width="1600"
     inkscape:window-height="880"
     inkscape:window-x="0"
     inkscape:window-y="20"
     inkscape:window-maximized="0"
     inkscape:snap-global="false"
     inkscape:object-paths="true"
     inkscape:snap-intersection-paths="true"
     inkscape:snap-smooth-nodes="true"
     fit-margin-top="0"
     fit-margin-left="0"
     fit-margin-right="0"
     fit-margin-bottom="0">
    <sodipodi:guide
       position="65.000001,56.1266"
       orientation="1,0"
       id="guide1431"
       inkscape:locked="false" />
    <sodipodi:guide
       position="-6.2273475e-08,132.03114"
       orientation="1,0"
       id="guide1433"
       inkscape:locked="false"
       inkscape:label=""
       inkscape:color="rgb(0,0,255)" />
    <sodipodi:guide
       position="130,129.35845"
       orientation="1,0"
       id="guide1435"
       inkscape:locked="false"
       inkscape:label=""
       inkscape:color="rgb(0,0,255)" />
    <sodipodi:guide
       position="-1.0622735e-06,63.87742"
       orientation="0,1"
       id="guide1437"
       inkscape:locked="false" />
    <sodipodi:guide
       position="64.999999,37.685"
       orientation="0,1"
       id="guide1439"
       inkscape:locked="false" />
    <sodipodi:guide
       position="64.999999,-4.3970223e-07"
       orientation="0,1"
       id="guide1441"
       inkscape:locked="false" />
    <sodipodi:guide
       position="64.999999,86.59533"
       orientation="0,1"
       id="guide1462"
       inkscape:locked="false" />
    <sodipodi:guide
       position="-1.0622735e-06,80.18086"
       orientation="0,1"
       id="guide1466"
       inkscape:locked="false" />
    <sodipodi:guide
       position="1.49643,77.16158"
       orientation="0,1"
       id="guide1474"
       inkscape:locked="false" />
  </sodipodi:namedview>
  <metadata
     id="metadata5">
    <rdf:RDF>
      <cc:Work
         rdf:about="">
        <dc:format>image/svg+xml</dc:format>
        <dc:type
           rdf:resource="http://purl.org/dc/dcmitype/StillImage" />
        <dc:title></dc:title>
      </cc:Work>
    </rdf:RDF>
  </metadata>
  <g
     inkscape:label="Layer 1"
     inkscape:groupmode="layer"
     id="layer1"
     transform="translate(-23.733481,-20.699404)">
    <path
       style="opacity:1;fill:#ffbd3c;fill-opacity:1;stroke:none;stroke-width:0.26458332px;stroke-linecap:butt;stroke-linejoin:miter;stroke-opacity:1"
       d="m 88.733481,129.422 c -42.137708,0 -65,-47.573981 -65,-63.87742 0,-16.303439 42.04811,-22.71791 65,-22.71791 22.951889,0 64.999999,6.414471 64.999999,22.71791 0,16.303439 -22.86229,63.87742 -64.999999,63.87742 z"
       id="path1464"
       inkscape:connector-curvature="0"
       sodipodi:nodetypes="zzzzz" />
    <path
       sodipodi:nodetypes="cccc"
       inkscape:connector-curvature="0"
       id="path1468"
       d="m 88.733481,129.422 c -42.137708,0 -65,-47.573981 -65,-63.87742 0,24.054264 50.592447,30.355134 83.985579,26.076322 C 37.118328,123.20289 88.733481,129.422 88.733481,129.422 Z"
       style="opacity:1;fill:#ffd584;fill-opacity:1;stroke:none;stroke-width:0.26458332px;stroke-linecap:butt;stroke-linejoin:miter;stroke-opacity:1" />
    <path
       sodipodi:nodetypes="zzzzz"
       inkscape:connector-curvature="0"
       id="path1472"
       d="m 88.733481,90.995257 c -41.157582,0 -63.488095,-12.166516 -63.488095,-25.450676 0,-13.28416 37.951764,-21.332828 63.488095,-21.332828 25.536329,0 63.488089,8.048668 63.488089,21.332828 0,13.28416 -22.33051,25.450676 -63.488089,25.450676 z"
       style="opacity:1;fill:#e7a21c;fill-opacity:1;stroke:none;stroke-width:0.25842908px;stroke-linecap:butt;stroke-linejoin:miter;stroke-opacity:1" />
    <path
       style="opacity:1;fill:#ff7bb5;fill-opacity:1;stroke:none;stroke-width:0.26458332px;stroke-linecap:butt;stroke-linejoin:miter;stroke-opacity:1"
       d="m 28.915177,71.990772 0.377979,-1.398511 -1.322917,-5.047681 h 4.157736 l -2.267857,-5.157676 4.157739,-5.102678 4.913691,-1.700895 4.535712,-12.662201 5.291667,-0.188987 0.944941,-3.96875 4.346725,3.590772 8.315479,-10.205355 2.267855,2.83482 4.346728,-6.047618 3.590772,2.645833 10.394346,-5.480655 4.913691,1.511905 -2.267858,2.83482 7.9375,0.566965 5.858632,-4.346726 -0.944941,-3.96875 6.992563,6.803573 6.61458,-0.944941 4.53571,10.205357 5.48066,-1.13393 2.45684,3.779764 1.88988,-3.401788 4.53572,3.96875 -2.45685,4.346726 3.59078,-2.456844 2.45684,8.315475 h 3.96875 l 1.70089,6.425597 3.77977,1.133928 -0.37798,4.724701 4.34673,1.13393 -2.26786,5.858629 1.5119,2.532441 c 0,0 -10.55688,17.100396 -58.488239,17.100396 -47.931363,0 -59.818304,-17.100396 -59.818304,-17.100396 z"
       id="path1470"
       inkscape:connector-curvature="0"
       sodipodi:nodetypes="cccccccccccccccccccccccccccccccccccccczc" />
    <path
       style="opacity:1;fill:#d2d2d2;fill-opacity:1;stroke:none;stroke-width:0.26458332px;stroke-linecap:butt;stroke-linejoin:miter;stroke-opacity:1"
       d="m 163.09672,22.116815 c 2.48076,0 7.79164,4.222353 7.84301,6.709076 0.0226,1.094244 -8.63684,8.335327 -17.20625,16.101734 -8.02383,7.271949 -20.12651,18.582789 -20.12651,18.582789 l -2.56665,-0.170808 -0.18112,-2.302707 -2.9076,-1.168609 c 0,0 13.45192,-14.889848 21.93473,-24.142855 6.58504,-7.182925 12.25036,-13.60862 13.21039,-13.60862 z"
       id="path1476"
       inkscape:connector-curvature="0"
       sodipodi:nodetypes="sssccccss" />
    <g
       id="g1503"
       style="fill:#ff348d;fill-opacity:1;stroke:none">
      <path
         inkscape:connector-curvature="0"
         id="path1482"
         d="m 112.65411,54.051998 -8.28536,2.539061 -1.20271,7.884451 8.01808,-3.741774 1.06908,-3.340868 3.87541,0.801809 z"
         style="fill:#ff348d;fill-opacity:1;stroke:none;stroke-width:0.26458332px;stroke-linecap:butt;stroke-linejoin:miter;stroke-opacity:1" />
      <path
         inkscape:connector-curvature="0"
         id="path1484"
         d="M 98.087914,66.48003 86.595325,65.544588 85.258978,61.401912 78.0427,58.194677 85.125345,57.927406 Z"
         style="fill:#ff348d;fill-opacity:1;stroke:none;stroke-width:0.26458332px;stroke-linecap:butt;stroke-linejoin:miter;stroke-opacity:1" />
      <path
         inkscape:connector-curvature="0"
         id="path1486"
         d="m 77.775431,53.116556 18.307963,3.207234 13.898016,-9.755338 9.48807,1.469983 v 6.815373 l 4.27631,0.534537 0.4009,-8.552624 -12.56166,-6.815373 -7.34992,3.741774 -7.034001,-4.455805 -9.803975,10.068465 z"
         style="fill:#ff348d;fill-opacity:1;stroke:none;stroke-width:0.26458332px;stroke-linecap:butt;stroke-linejoin:miter;stroke-opacity:1"
         sodipodi:nodetypes="cccccccccccc" />
      <path
         inkscape:connector-curvature="0"
         id="path1488"
         d="M 48.375784,60.199198 60.937451,47.63753 73.499119,51.780207 63.476512,44.697565 51.315749,44.563932 53.85481,49.64205 Z"
         style="fill:#ff348d;fill-opacity:1;stroke:none;stroke-width:0.26458332px;stroke-linecap:butt;stroke-linejoin:miter;stroke-opacity:1" />
      <path
         inkscape:connector-curvature="0"
         id="path1490"
         d="m 59.467469,72.359961 17.773425,6.681737 -2.672697,5.211757 -9.087165,-2.405425 -0.935442,3.073599 -12.428032,-7.483547 5.879928,-1.069078 z"
         style="fill:#ff348d;fill-opacity:1;stroke:none;stroke-width:0.26458332px;stroke-linecap:butt;stroke-linejoin:miter;stroke-opacity:1" />
      <path
         inkscape:connector-curvature="0"
         id="path1492"
         d="m 126.28485,77.705351 -19.64431,1.202714 9.88897,-11.358957 3.60814,4.276315 9.08717,-4.142679 z"
         style="fill:#ff348d;fill-opacity:1;stroke:none;stroke-width:0.26458332px;stroke-linecap:butt;stroke-linejoin:miter;stroke-opacity:1" />
      <path
         inkscape:connector-curvature="0"
         id="path1494"
         d="m 85.125345,86.926149 17.105245,-0.133633 -6.414465,-6.1472 3.207234,-2.405424 -7.750818,-2.539061 z"
         style="fill:#ff348d;fill-opacity:1;stroke:none;stroke-width:0.26458332px;stroke-linecap:butt;stroke-linejoin:miter;stroke-opacity:1" />
      <path
         style="fill:#ff348d;fill-opacity:1;stroke:none;stroke-width:0.26458332px;stroke-linecap:butt;stroke-linejoin:miter;stroke-opacity:1"
         d="m 137.79542,73.247919 -3.34087,-2.806329 4.00904,-6.147201 2.2718,4.810854 z"
         id="path1538"
         inkscape:connector-curvature="0"
         sodipodi:nodetypes="ccccc" />
    </g>
    <g
       id="g1517"
       style="fill:#ffacd1;fill-opacity:1;stroke:none">
      <path
         inkscape:connector-curvature="0"
         id="path1505"
         d="m 65.200892,68.324404 4.724701,-8.693452 4.346729,2.078868 1.889879,-2.645833 6.614583,9.071427 14.930059,-0.377975 6.803577,5.858631 -16.441969,-0.755951 -6.425595,4.91369 z"
         style="fill:#ffacd1;fill-opacity:1;stroke:none;stroke-width:0.26458332px;stroke-linecap:butt;stroke-linejoin:miter;stroke-opacity:1" />
      <path
         inkscape:connector-curvature="0"
         id="path1507"
         d="m 74.650297,38.842262 13.985119,-7.748514 8.126489,3.023812 4.535715,-2.078871 2.26785,1.322917 -11.150294,6.047621 z"
         style="fill:#ffacd1;fill-opacity:1;stroke:none;stroke-width:0.26458332px;stroke-linecap:butt;stroke-linejoin:miter;stroke-opacity:1" />
      <path
         inkscape:connector-curvature="0"
         id="path1509"
         d="m 38.931548,53.583331 4.535712,-12.662201 5.291667,6.614583 -5.291667,20.97768 -12.473212,1.889879 9.449403,-8.882441 z"
         style="fill:#ffacd1;fill-opacity:1;stroke:none;stroke-width:0.26458332px;stroke-linecap:butt;stroke-linejoin:miter;stroke-opacity:1"
         sodipodi:nodetypes="ccccccc" />
      <path
         inkscape:connector-curvature="0"
         id="path1511"
         d="M 64.917409,42.826671 54.050593,40.354165 62.366072,30.14881 Z"
         style="fill:#ffacd1;fill-opacity:1;stroke:none;stroke-width:0.26458332px;stroke-linecap:butt;stroke-linejoin:miter;stroke-opacity:1"
         sodipodi:nodetypes="cccc" />
      <path
         sodipodi:nodetypes="ccccc"
         style="fill:#ffacd1;fill-opacity:1;stroke:none;stroke-width:0.26458332px;stroke-linecap:butt;stroke-linejoin:miter;stroke-opacity:1"
         d="M 63.751651,52.260421 63.075608,59.798293 55.680517,71.44351 54.305504,61.491991 Z"
         id="path1536"
         inkscape:connector-curvature="0" />
    </g>
  </g>
</svg>
